<?xml version="1.0" standalone="no"?><!DOCTYPE svg PUBLIC "-//W3C//DTD SVG 1.1//EN" "http://www.w3.org/Graphics/SVG/1.1/DTD/svg11.dtd"><svg t="1664271463546" class="icon" viewBox="0 0 1024 1024" version="1.1" xmlns="http://www.w3.org/2000/svg" p-id="3877" xmlns:xlink="http://www.w3.org/1999/xlink" width="200" height="200"><path d="M582.4 105.6c0-22.4 19.2-40.8 42.4-40.8s42.4 18.4 42.4 40.8V160c0 22.4-19.2 40.8-42.4 40.8-11.2 0-21.6-4-29.6-12-8-7.2-12-17.6-12-28.8v-54.4z m-232.8 0c0-22.4 19.2-40.8 42.4-40.8s42.4 18.4 42.4 40.8V160c0 22.4-19.2 40.8-42.4 40.8-11.2 0-21.6-4-29.6-12-8-7.2-12-17.6-12-28.8v-54.4zM276 331.2h447.2c22.4 0 40.8 18.4 40.8 40.8s-18.4 40.8-40.8 40.8H276c-22.4 0-40.8-18.4-40.8-40.8s18.4-40.8 40.8-40.8z m200.8 385.6c-8 7.2-18.4 11.2-28.8 11.2H276c-22.4 0-40.8-18.4-40.8-40.8s18.4-40.8 40.8-40.8h172c22.4 0 40.8 18.4 40.8 40.8 0 11.2-4.8 21.6-12 29.6zM276 569.6c-22.4 0-40.8-18.4-40.8-40.8S253.6 488 276 488h300c22.4 0 40.8 18.4 40.8 40.8 0 11.2-4 20.8-12 28.8s-17.6 12-28.8 12H276zM992 764l-86.4 85.6c-0.8 1.6-2.4 2.4-3.2 4L779.2 974.4c-2.4 2.4-4.8 4-8 6.4-6.4 4.8-14.4 6.4-22.4 6.4-11.2 0-20.8-4.8-28.8-12L599.2 852c-10.4-10.4-13.6-25.6-10.4-39.2 4-13.6 15.2-24.8 28.8-28 13.6-3.2 28.8 0.8 39.2 11.2l92.8 94.4 59.2-58.4c0.8-1.6 2.4-2.4 3.2-4l123.2-120.8c8-7.2 17.6-12 28.8-12s20.8 4 28.8 12c15.2 15.2 15.2 41.6-0.8 56.8zM448 647.2H276c-22.4 0-40.8 18.4-40.8 40.8s18.4 40.8 40.8 40.8h172c10.4 0 20.8-4 28.8-12 7.2-7.2 12-17.6 12-28.8 0-22.4-18.4-40.8-40.8-40.8z m168.8-118.4c0-22.4-18.4-40.8-40.8-40.8H276c-22.4 0-40.8 18.4-40.8 40.8s18.4 40.8 40.8 40.8h300c11.2 0 20.8-4 28.8-12s12-18.4 12-28.8zM276 412h447.2c22.4 0 40.8-18.4 40.8-40.8s-18.4-40.8-40.8-40.8H276c-22.4 0-40.8 18.4-40.8 40.8S253.6 412 276 412z m716 295.2c-7.2-8-17.6-12-28.8-12-10.4 0-20.8 4-28.8 12L811.2 828c-0.8 0.8-2.4 2.4-3.2 4l-59.2 58.4-92-96C646.4 784 632 780 617.6 783.2c-13.6 4-24.8 14.4-28.8 28s0 28.8 10.4 39.2l120.8 124c7.2 8 17.6 12 28.8 12 8 0 16-2.4 22.4-6.4 3.2-1.6 5.6-4 8-6.4l123.2-120.8c0.8-0.8 2.4-2.4 3.2-4L992 764c16-15.2 16-41.6 0-56.8zM392 200c23.2 0 42.4-18.4 42.4-40.8v-54.4c0-22.4-19.2-40.8-42.4-40.8s-42.4 18.4-42.4 40.8V160c0 10.4 4.8 20.8 12 28.8 8 7.2 19.2 11.2 30.4 11.2z m232 0c23.2 0 42.4-18.4 42.4-40.8v-54.4c0-22.4-19.2-40.8-42.4-40.8s-42.4 18.4-42.4 40.8V160c0 10.4 4.8 20.8 12 28.8 8.8 7.2 20 11.2 30.4 11.2z m-388 800h549.6c126.4 0 228.8-102.4 228.8-228.8V380.8c0.8-15.2-0.8-29.6-3.2-44v-49.6C1011.2 164 912 64 790.4 64h-120c-4.8-22.4-24.8-39.2-48-39.2-24 0-43.2 16.8-48 39.2H440.8c-4-22.4-24-40-48.8-40-24 0-44.8 17.6-48.8 40.8H236C116.8 64 19.2 160 15.2 280v505.6C19.2 904.8 116 1000 236 1000z m572-165.6c0.8-1.6 2.4-3.2 3.2-4l123.2-120.8c8-8 18.4-12 28.8-12 11.2 0 21.6 4 28.8 12 16 15.2 16 41.6 0 56.8l-86.4 84.8c-0.8 1.6-2.4 3.2-3.2 4L779.2 976c-2.4 2.4-4.8 4.8-8 6.4-6.4 4-14.4 6.4-22.4 6.4-11.2 0-21.6-4-28.8-12l-120.8-124c-10.4-10.4-14.4-25.6-10.4-39.2 4-13.6 15.2-24 28.8-28 14.4-3.2 28.8 0.8 39.2 11.2l92 96 59.2-58.4zM581.6 107.2c0-22.4 19.2-40.8 42.4-40.8s42.4 18.4 42.4 40.8v54.4c0 22.4-19.2 40.8-42.4 40.8-10.4 0-21.6-4-30.4-11.2-7.2-8-12-18.4-12-28.8v-55.2z m-232 0c0-22.4 19.2-40.8 42.4-40.8s42.4 18.4 42.4 40.8v54.4c0 22.4-19.2 40.8-42.4 40.8-11.2 0-22.4-4-30.4-11.2-7.2-8-12-18.4-12-28.8v-55.2zM276 332.8h447.2c22.4 0 40.8 18.4 40.8 40.8s-18.4 40.8-40.8 40.8H276c-22.4 0-40.8-18.4-40.8-40.8s18.4-40.8 40.8-40.8z m0 157.6h300c22.4 0 40.8 18.4 40.8 40.8 0 10.4-4 20.8-12 28.8s-17.6 12-28.8 12H276c-22.4 0-40.8-18.4-40.8-40.8s18.4-40.8 40.8-40.8z m0 159.2h172c22.4 0 40.8 18.4 40.8 40.8 0 11.2-4.8 21.6-12 28.8-8 8-18.4 12-28.8 12H276c-22.4 0-40.8-18.4-40.8-40.8s18.4-40.8 40.8-40.8z" fill="#333333" p-id="3878"></path></svg>