<?xml version="1.0" standalone="no"?><!DOCTYPE svg PUBLIC "-//W3C//DTD SVG 1.1//EN" "http://www.w3.org/Graphics/SVG/1.1/DTD/svg11.dtd"><svg t="1641043600572" class="icon" viewBox="0 0 1031 1024" version="1.1" xmlns="http://www.w3.org/2000/svg" p-id="5260" xmlns:xlink="http://www.w3.org/1999/xlink" width="201.3671875" height="200"><defs><style type="text/css"></style></defs><path d="M300.855253 910.144747V376.031128c-3.486381-63.153307 22.810895-93.036576 78.99144-89.450583h273.730739v28.98677H453.459144c-31.576654 0-47.414786 17.531518-47.414786 52.594553v115.847471h236.874708v31.576653H406.143969v394.558755H300.855253z" p-id="5261"></path><path d="M643.516732 733.136187l144.73463-150.014008-144.73463-168.541634h102.698832l92.140078 113.157976 92.140078-113.157976h97.419455L883.080934 577.842802l139.455253 155.293385c-84.270817 3.486381-129.892607-7.869261-136.86537-34.166537-5.279377-6.972763-9.662257-12.25214-13.148638-15.838132l-39.445914-50.00467-42.135409 47.414786c-1.792996 3.486381-5.279377 6.972763-10.558755 10.558755-12.25214 31.477043-57.87393 45.522179-136.865369 42.035798z" p-id="5262"></path><path d="M812.456809 1024H0.03035V378.621012L378.651362 0h433.805447v184.678599h-69.727626V69.727626H407.538521L69.757977 407.508171V954.272374h672.971206v-95.72607h69.727626z" p-id="5263"></path></svg>