<?xml version="1.0" standalone="no"?><!DOCTYPE svg PUBLIC "-//W3C//DTD SVG 1.1//EN" "http://www.w3.org/Graphics/SVG/1.1/DTD/svg11.dtd"><svg t="1641043469020" class="icon" viewBox="0 0 1024 1024" version="1.1" xmlns="http://www.w3.org/2000/svg" p-id="3034" xmlns:xlink="http://www.w3.org/1999/xlink" width="200" height="200"><defs><style type="text/css"></style></defs><path d="M926.08 192L425.6 92.16l-23.04 64-151.04 411.52a41.6 41.6 0 0 1-33.92 32 39.04 39.04 0 0 1-39.68-56.32l48.64-133.12L361.6 40.96a40.96 40.96 0 0 1 53.76-30.08l562.56 111.36a40.32 40.32 0 0 1 33.92 56.32c-64 206.72-135.04 413.44-215.04 615.04a640 640 0 0 1-64 128 207.36 207.36 0 0 1-167.04 92.8A236.16 236.16 0 0 1 448 990.72c-106.24-47.36-211.2-94.72-316.8-142.08a208.64 208.64 0 0 1-79.36-55.04 192 192 0 0 1-42.24-141.44c0-17.28 4.48-35.2 7.04-54.4l10.88 3.84c141.44 56.96 282.24 114.56 423.68 170.88a13.44 13.44 0 0 1 9.6 14.08 203.52 203.52 0 0 0 18.56 99.2 92.8 92.8 0 0 0 96.64 49.28 136.32 136.32 0 0 0 98.56-72.96 858.24 858.24 0 0 0 64-145.92c60.16-156.8 113.92-316.16 166.4-476.16 5.76-16 10.88-32 16-48.64z m0 0" fill="#323333" p-id="3035"></path><path d="M645.76 689.92a37.76 37.76 0 0 1-50.56 35.84l-163.84-54.4a39.68 39.68 0 0 1-26.24-40.32 37.76 37.76 0 0 1 33.28-33.28 52.48 52.48 0 0 1 19.84 0l158.08 52.48a37.76 37.76 0 0 1 29.44 37.76z m64-155.52a35.84 35.84 0 0 1-10.24 26.88 36.48 36.48 0 0 1-26.88 10.88 44.16 44.16 0 0 1-16 0l-159.36-54.4a38.4 38.4 0 0 1-28.16-47.36 36.48 36.48 0 0 1 42.88-27.52c19.2 5.12 37.12 12.16 55.68 17.92l108.8 35.84a37.76 37.76 0 0 1 30.08 37.12z m67.84-166.4a36.48 36.48 0 0 1-40.96 37.12c-23.68-4.48-46.72-11.52-69.76-17.92l-102.4-27.52a37.12 37.12 0 0 1-30.08-33.92 36.48 36.48 0 0 1 18.56-36.48 42.24 42.24 0 0 1 35.2 0L704 320l44.8 12.16a39.04 39.04 0 0 1 28.8 37.12z m-380.16 39.04a40.96 40.96 0 0 1 40.96 40.96 39.68 39.68 0 0 1-38.4 38.4 40.96 40.96 0 0 1-42.88-38.4 38.4 38.4 0 0 1 38.4-38.4z m64-81.92a40.32 40.32 0 0 1-41.6-39.04 35.84 35.84 0 0 1 11.52-26.88 37.76 37.76 0 0 1 26.88-10.88 39.68 39.68 0 0 1 42.24 39.68 35.84 35.84 0 0 1-39.04 36.48zM336 554.88a39.68 39.68 0 0 1 41.6 39.04 37.76 37.76 0 0 1-10.88 26.88 40.32 40.32 0 0 1-26.24 10.88 40.96 40.96 0 0 1-44.16-39.04 38.4 38.4 0 0 1 39.68-37.76z m0 0" fill="#323333" p-id="3036"></path></svg>