<?xml version="1.0" standalone="no"?><!DOCTYPE svg PUBLIC "-//W3C//DTD SVG 1.1//EN" "http://www.w3.org/Graphics/SVG/1.1/DTD/svg11.dtd"><svg t="1664271803032" class="icon" viewBox="0 0 1024 1024" version="1.1" xmlns="http://www.w3.org/2000/svg" p-id="5056" xmlns:xlink="http://www.w3.org/1999/xlink" width="200" height="200"><path d="M521.216 93.184c159.914667 0 290.133333 130.218667 290.133333 290.133333s-130.218667 290.133333-290.133333 290.133334-290.133333-130.218667-290.133333-290.133334 130.218667-290.133333 290.133333-290.133333m0-68.266667c-197.973333 0-358.4 160.426667-358.4 358.4s160.426667 358.4 358.4 358.4 358.4-160.426667 358.4-358.4-160.426667-358.4-358.4-358.4z" p-id="5057"></path><path d="M521.557333 582.826667a192.853333 192.853333 0 0 1-143.189333-63.829334c-12.629333-13.994667-11.434667-35.498667 2.56-48.128 13.994667-12.629333 35.498667-11.434667 48.128 2.56a124.910933 124.910933 0 0 0 92.501333 41.130667c34.986667 0 68.437333-14.848 91.989334-40.618667 12.629333-13.994667 34.304-14.848 48.298666-2.218666 13.994667 12.8 14.848 34.304 2.218667 48.298666a194.0992 194.0992 0 0 1-142.506667 62.805334zM733.696 946.346667c-9.386667 0-18.602667-3.754667-25.429333-11.264a253.610667 253.610667 0 0 0-187.733334-83.626667c-70.826667 0-138.922667 30.037333-186.709333 82.432-12.629333 13.994667-34.304 14.848-48.298667 2.218667-13.994667-12.8-14.848-34.304-2.218666-48.298667 60.757333-66.389333 147.114667-104.618667 237.056-104.618667 90.794667 0 177.664 38.741333 238.421333 106.154667 12.629333 13.994667 11.434667 35.498667-2.56 48.298667-6.144 5.802667-14.336 8.704-22.528 8.704z" p-id="5058"></path></svg>