<?xml version="1.0" standalone="no"?><!DOCTYPE svg PUBLIC "-//W3C//DTD SVG 1.1//EN" "http://www.w3.org/Graphics/SVG/1.1/DTD/svg11.dtd"><svg t="1641045747366" class="icon" viewBox="0 0 1024 1024" version="1.1" xmlns="http://www.w3.org/2000/svg" p-id="12763" xmlns:xlink="http://www.w3.org/1999/xlink" width="200" height="200"><defs><style type="text/css"></style></defs><path d="M841.296 64A86.8 86.8 0 0 1 928 150.704v738.592A86.8 86.8 0 0 1 841.296 976H198.704A86.8 86.8 0 0 1 112 889.296V150.704A86.8 86.8 0 0 1 198.704 64h642.592zM880 889.296V150.704A38.752 38.752 0 0 0 841.296 112H198.704A38.752 38.752 0 0 0 160 150.704v738.592A38.752 38.752 0 0 0 198.704 928h642.592A38.752 38.752 0 0 0 880 889.296z m-156.352-493.728l-79.2-79.216L678.4 282.4l79.2 79.2-33.952 33.952zM272.48 713.712l53.824 53.824H272.48v-53.824z m100.464 32.576l-79.2-79.2 316.784-316.8 79.2 79.2-316.8 316.8z m322.416-514.784a24 24 0 0 0-33.92 0l-429.92 429.92a24 24 0 0 0-7.04 16.96v113.152a24 24 0 0 0 24 24h113.152c6.368 0 12.464-2.528 16.96-7.04l429.92-429.92a24 24 0 0 0 0-33.936l-113.152-113.136z m-56.544 169.696a24 24 0 0 0-33.936 0L344.64 661.44a24 24 0 1 0 33.92 33.936l260.24-260.224a24 24 0 0 0 0-33.92" fill="#797979" p-id="12764"></path></svg>