<?xml version="1.0" standalone="no"?><!DOCTYPE svg PUBLIC "-//W3C//DTD SVG 1.1//EN" "http://www.w3.org/Graphics/SVG/1.1/DTD/svg11.dtd"><svg t="1641043555887" class="icon" viewBox="0 0 1024 1024" version="1.1" xmlns="http://www.w3.org/2000/svg" p-id="4814" xmlns:xlink="http://www.w3.org/1999/xlink" width="200" height="200"><defs><style type="text/css"></style></defs><path d="M512 73.142857C270.628571 73.142857 73.142857 270.628571 73.142857 512s197.485714 438.857143 438.857143 438.857143 438.857143-197.485714 438.857143-438.857143-197.485714-438.857143-438.857143-438.857143z m0 804.571429c-204.8 0-365.714286-160.914286-365.714286-365.714286s160.914286-365.714286 365.714286-365.714286 365.714286 160.914286 365.714286 365.714286-160.914286 365.714286-365.714286 365.714286z" fill="" p-id="4815"></path><path d="M621.714286 512H512V256c0-21.942857-14.628571-36.571429-36.571429-36.571429s-36.571429 14.628571-36.571428 36.571429v292.571429c0 21.942857 14.628571 36.571429 36.571428 36.571428h146.285715c21.942857 0 36.571429-14.628571 36.571428-36.571428S643.657143 512 621.714286 512z" fill="" p-id="4816"></path></svg>