<?xml version="1.0" standalone="no"?><!DOCTYPE svg PUBLIC "-//W3C//DTD SVG 1.1//EN" "http://www.w3.org/Graphics/SVG/1.1/DTD/svg11.dtd"><svg t="1664271387007" class="icon" viewBox="0 0 1024 1024" version="1.1" xmlns="http://www.w3.org/2000/svg" p-id="2843" xmlns:xlink="http://www.w3.org/1999/xlink" width="200" height="200"><path d="M711.0656 568.9344c94.3104 0 170.7008 76.3904 170.7008 170.7008S805.376 910.336 711.0656 910.336s-170.7008-76.3904-170.7008-170.7008c0.1024-94.4128 76.4928-170.7008 170.7008-170.7008zM794.624 824.1152c11.0592-11.0592 11.0592-29.0816 0-40.2432l-55.0912-55.1936v-72.9088c0-15.6672-12.6976-28.4672-28.4672-28.4672-15.6672 0-28.4672 12.8-28.4672 28.4672v72.9088c0 15.0528 6.0416 29.5936 16.6912 40.2432l55.0912 55.1936c11.1616 11.0592 29.184 11.0592 40.2432 0zM398.2336 568.832c15.6672 0 28.4672-12.6976 28.4672-28.4672 0-15.6672-12.6976-28.4672-28.4672-28.4672H284.4672c-15.6672 0-28.4672 12.6976-28.4672 28.4672 0 15.6672 12.6976 28.4672 28.4672 28.4672h113.7664zM284.4672 398.2336c-15.6672 0-28.4672 12.6976-28.4672 28.4672 0 15.6672 12.6976 28.4672 28.4672 28.4672H512c15.6672 0 28.4672-12.6976 28.4672-28.4672 0-15.6672-12.6976-28.4672-28.4672-28.4672H284.4672z m0-113.7664c-15.6672 0-28.4672 12.6976-28.4672 28.4672 0 15.6672 12.6976 28.4672 28.4672 28.4672h341.2992c15.6672 0 28.4672-12.6976 28.4672-28.4672 0-15.6672-12.6976-28.4672-28.4672-28.4672H284.4672zM711.168 512c-125.6448 0-227.5328 101.888-227.5328 227.5328 0 68.3008 30.8224 128.9216 78.5408 170.7008H199.168c-31.4368 0-56.9344-25.3952-56.9344-56.9344V170.7008c0-31.4368 25.3952-56.9344 56.9344-56.9344H768c31.4368 0 56.9344 25.3952 56.9344 56.9344v372.9408c-33.6896-19.6608-72.192-31.6416-113.7664-31.6416z" fill="#323233" p-id="2844"></path></svg>