<?xml version="1.0" standalone="no"?><!DOCTYPE svg PUBLIC "-//W3C//DTD SVG 1.1//EN" "http://www.w3.org/Graphics/SVG/1.1/DTD/svg11.dtd"><svg t="1641044901554" class="icon" viewBox="0 0 1024 1024" version="1.1" xmlns="http://www.w3.org/2000/svg" p-id="10108" xmlns:xlink="http://www.w3.org/1999/xlink" width="200" height="200"><defs><style type="text/css"></style></defs><path d="M351.44 54a23.91 23.91 0 0 0-6.65-1h-8.06A23.72 23.72 0 0 0 313 76.73v129.54A23.72 23.72 0 0 0 336.73 230h8.06a23.91 23.91 0 0 0 6.65-0.95zM461.44 54a23.91 23.91 0 0 0-6.65-1h-8.06A23.72 23.72 0 0 0 423 76.73v129.54A23.72 23.72 0 0 0 446.73 230h8.06a23.91 23.91 0 0 0 6.65-0.95zM583.44 54a23.91 23.91 0 0 0-6.65-1h-8.06A23.72 23.72 0 0 0 545 76.73v129.54A23.72 23.72 0 0 0 568.73 230h8.06a23.91 23.91 0 0 0 6.65-0.95z" p-id="10109"></path><path d="M368.52 117h92.92v40h-92.92zM600.52 117h92.92v40h-92.92zM478.52 117h104.92v40H478.52z" p-id="10110"></path><path d="M800 117h-89.48v40H800a20 20 0 0 1 20 20v714a20 20 0 0 1-20 20H224a20 20 0 0 1-20-20V177a20 20 0 0 1 20-20h127.44v-40H224a60.07 60.07 0 0 0-60 60v714a60.07 60.07 0 0 0 60 60h576a60.07 60.07 0 0 0 60-60V177a60.07 60.07 0 0 0-60-60z" p-id="10111"></path><path d="M693.44 54a23.91 23.91 0 0 0-6.65-1h-8.06A23.72 23.72 0 0 0 655 76.73v129.54A23.72 23.72 0 0 0 678.73 230h8.06a23.91 23.91 0 0 0 6.65-0.95zM745 342H361.52c-10.87 0-20.15-8.45-20.51-19.32A20 20 0 0 1 361 302h383.52c10.85 0 20.08 8.43 20.47 19.27A20 20 0 0 1 745 342zM745 456.33H361.52c-10.87 0-20.15-8.45-20.51-19.31a20 20 0 0 1 20-20.69h383.51c10.85 0 20.08 8.44 20.47 19.27A20 20 0 0 1 745 456.33zM745 570.67H361.52c-10.87 0-20.15-8.45-20.51-19.32a20 20 0 0 1 20-20.68h383.51c10.85 0 20.08 8.43 20.47 19.27A20 20 0 0 1 745 570.67zM504 685H361.52c-10.87 0-20.15-8.45-20.51-19.32A20 20 0 0 1 361 645h142.52c10.85 0 20.08 8.43 20.47 19.27A20 20 0 0 1 504 685z" p-id="10112"></path><path d="M280 551m-20 0a20 20 0 1 0 40 0 20 20 0 1 0-40 0Z" p-id="10113"></path><path d="M280 665m-20 0a20 20 0 1 0 40 0 20 20 0 1 0-40 0Z" p-id="10114"></path><path d="M280 323m-20 0a20 20 0 1 0 40 0 20 20 0 1 0-40 0Z" p-id="10115"></path><path d="M280 437m-20 0a20 20 0 1 0 40 0 20 20 0 1 0-40 0Z" p-id="10116"></path></svg>